<?xml version="1.0" encoding="utf-8"?>
<!-- Generator: Adobe Illustrator 25.2.3, SVG Export Plug-In . SVG Version: 6.00 Build 0)  -->
<svg version="1.1" id="Layer_1" xmlns="http://www.w3.org/2000/svg" xmlns:xlink="http://www.w3.org/1999/xlink" x="0px" y="0px"
	 viewBox="0 0 213.6 94" style="enable-background:new 0 0 213.6 94;" xml:space="preserve">
<style type="text/css">
	.st0{fill:#010101;}
	.st1{fill:#FBB03C;}
	.st2{font-family:'ArialMT';}
	.st3{font-size:29.4138px;}
</style>
<g>
	<path class="st0" d="M90.1,56.3c5.1-5.1,5.1-13.5,0-18.7c-2.5-2.5-5.8-3.9-9.3-3.9c-0.8,0-1.7,0.1-2.5,0.2
		c3.5-2.4,5.8-6.4,5.8-10.9c0-7.3-5.9-13.2-13.2-13.2c-4.5,0-8.5,2.3-10.9,5.8c0.8-4.2-0.4-8.6-3.6-11.8C53.8,1.4,50.5,0,47,0
		c-3.5,0-6.8,1.4-9.3,3.9C34.5,7,33.2,11.5,34,15.7c-2.4-3.5-6.4-5.8-10.9-5.8c-7.3,0-13.2,5.9-13.2,13.2c0,4.5,2.3,8.5,5.8,10.9
		c-0.8-0.1-1.6-0.2-2.5-0.2c-3.5,0-6.8,1.4-9.3,3.9S0,43.5,0,47s1.4,6.8,3.9,9.3s5.8,3.9,9.3,3.9c0.8,0,1.7-0.1,2.5-0.2
		c-3.5,2.4-5.8,6.4-5.8,10.9c0,7.3,5.9,13.2,13.2,13.2c4.5,0,8.5-2.3,10.9-5.8c-0.8,4.2,0.4,8.6,3.6,11.8c2.5,2.5,5.8,3.9,9.3,3.9
		c3.5,0,6.8-1.4,9.3-3.9c3.2-3.2,4.4-7.6,3.6-11.8c2.4,3.5,6.4,5.8,10.9,5.8c7.3,0,13.2-5.9,13.2-13.2c0-4.5-2.3-8.5-5.8-10.9
		c0.8,0.1,1.6,0.2,2.5,0.2C84.3,60.2,87.6,58.8,90.1,56.3"/>
	<path class="st1" d="M86.1,41.7c-2.9-2.9-7.8-2.9-10.7,0H59.9l11-11c4.2,0,7.6-3.4,7.6-7.6s-3.4-7.6-7.6-7.6
		c-4.2,0-7.6,3.4-7.6,7.6l-11,11V18.6c2.9-2.9,2.9-7.8,0-10.7s-7.8-2.9-10.7,0s-2.9,7.8,0,10.7v15.5l-11-11c0-4.2-3.4-7.6-7.6-7.6
		s-7.6,3.4-7.6,7.6s3.4,7.6,7.6,7.6l11,11H18.5c-2.9-2.9-7.8-2.9-10.7,0s-2.9,7.8,0,10.7c2.9,2.9,7.8,2.9,10.7,0H34l-11,11
		c-4.2,0-7.6,3.4-7.6,7.6c0,4.2,3.4,7.6,7.6,7.6s7.6-3.4,7.6-7.6l11-11v15.5c-2.9,2.9-2.9,7.8,0,10.7c2.9,2.9,7.8,2.9,10.7,0
		c2.9-2.9,2.9-7.8,0-10.7V59.9l11,11c0,4.2,3.4,7.6,7.6,7.6s7.6-3.4,7.6-7.6c0-4.2-3.4-7.6-7.6-7.6l-11-11h15.5
		c2.9,2.9,7.8,2.9,10.7,0C89.1,49.4,89.1,44.6,86.1,41.7"/>
</g>
<text transform="matrix(1 0 0 1 99.0277 58.2132)" class="st2 st3">Courses</text>
</svg>
